<?xml version="1.0" encoding="utf-8"?>
<!-- Generator: Adobe Illustrator 19.2.1, SVG Export Plug-In . SVG Version: 6.00 Build 0)  -->
<svg version="1.1" id="layer" xmlns="http://www.w3.org/2000/svg" xmlns:xlink="http://www.w3.org/1999/xlink" x="0px" y="0px"
	 viewBox="0 0 652 652" style="enable-background:new 0 0 652 652;" xml:space="preserve">
<style type="text/css">
	.st0{fill:#8DC21F;}
	.st1{fill:#231815;}
</style>
<polygon class="st0" points="525.1,392.7 525.1,526.9 391,526.9 391,572.4 570.6,572.4 570.6,392.7 "/>
<polygon class="st0" points="391,72.4 391,117.9 525.1,117.9 525.1,252 570.6,252 570.6,72.4 "/>
<polygon class="st0" points="70.6,72.4 70.6,252 116.1,252 116.1,117.9 250.2,117.9 250.2,72.4 "/>
<polygon class="st0" points="70.6,392.7 70.6,572.4 250.2,572.4 250.2,526.9 116.1,526.9 116.1,392.7 "/>
<polygon class="st1" points="167.8,252 167.8,214.7 132.7,159.5 159.6,159.5 179.8,193.6 199.6,159.5 226.6,159.5 191.7,214.7 
	191.7,252 "/>
<g>
	<path class="st1" d="M217.6,205.8c0-28.2,21.2-47.8,49.5-47.8s49.4,19.7,49.4,47.8c0,28.2-21.1,47.8-49.4,47.8
		S217.6,234,217.6,205.8 M292.2,205.8c0-15.1-9.8-26.8-25.1-26.8c-15.4,0-25.3,11.6-25.3,26.8c0,15,9.9,26.8,25.3,26.8
		C282.3,232.6,292.2,220.8,292.2,205.8"/>
	<path class="st1" d="M325.3,214.6v-55.1h24.3v54.2c0,10.9,6.5,18.8,19.6,18.8c12.8,0,19.4-7.9,19.4-18.8v-54.2h24.1v54.9
		c0,23-14,39.2-43.5,39.2C339.3,253.7,325.3,237.3,325.3,214.6"/>
	<path class="st1" d="M475.3,252L459.8,221h-12.2V252h-23.8v-92.5H470c20.5,0,32.2,13.6,32.2,30.8c0,16.1-9.8,24.7-18.4,27.7
		l18.9,34H475.3z M478,190.2c0-6.3-5.3-9.9-11.5-9.9h-18.8v19.8h18.8C472.7,200.2,478,196.7,478,190.2"/>
	<path class="st1" d="M153.5,368.3v-92.5h46.3c20.8,0,32.2,14,32.2,30.8c0,16.6-11.4,30.6-32.2,30.6h-22.5v31.1H153.5z M207.7,306.6
		c0-6.4-4.7-10-11.1-10h-19.3v19.8h19.3C203,316.5,207.7,312.9,207.7,306.6"/>
	<path class="st1" d="M298.5,368.3l-4.6-13.3h-36.5l-4.6,13.3h-27.1l34.8-92.5h30l34.9,92.5H298.5z M275.6,299.4l-11.8,34.8h23.6
		L275.6,299.4z"/>
	<path class="st1" d="M327,355.3l12.6-17.9c6.7,6.7,16.9,12.2,29.5,12.2c8.2,0,13.2-3.2,13.2-7.6c0-12.6-52.4-2.5-52.4-38.1
		c0-15.5,13.2-29.4,36.9-29.4c14.8,0,27.7,4.4,37.6,12.9l-13,17.1c-7.8-6.4-17.9-9.6-27-9.6c-6.9,0-10,2.8-10,6.6
		c0,11.8,52.3,3.2,52.3,37.6c0,18.6-13.7,30.9-38.5,30.9C349.4,370,336.3,364.2,327,355.3"/>
	<path class="st1" d="M413.8,355.3l12.6-17.9c6.7,6.7,16.9,12.2,29.5,12.2c8.2,0,13.2-3.2,13.2-7.6c0-12.6-52.4-2.5-52.4-38.1
		c0-15.5,13.2-29.4,36.9-29.4c14.8,0,27.7,4.4,37.6,12.9l-13,17.1c-7.8-6.4-17.9-9.6-27-9.6c-6.9,0-10,2.8-10,6.6
		c0,11.8,52.3,3.2,52.3,37.6c0,18.6-13.7,30.9-38.6,30.9C436.1,370,423.1,364.2,413.8,355.3"/>
	<polygon class="st1" points="217.5,484.7 178.4,431.2 178.4,484.7 154.6,484.7 154.6,392.2 179.1,392.2 216.6,443.1 216.6,392.2 
		240.6,392.2 240.6,484.7 	"/>
	<path class="st1" d="M258.9,438.5c0-28.1,21.2-47.8,49.5-47.8c28.3,0,49.4,19.7,49.4,47.8c0,28.2-21.1,47.8-49.4,47.8
		C280.1,486.3,258.9,466.7,258.9,438.5 M333.5,438.5c0-15.1-9.8-26.8-25.1-26.8c-15.4,0-25.3,11.6-25.3,26.8
		c0,15,9.9,26.8,25.3,26.8C323.7,465.3,333.5,453.5,333.5,438.5"/>
	<polygon class="st1" points="444.2,484.7 430.2,426.7 416.2,484.7 391,484.7 364.5,392.2 391.2,392.2 405.2,453.9 421.1,392.2 
		439.4,392.2 455.2,453.9 469,392.2 496,392.2 469.5,484.7 	"/>
</g>
</svg>
